<svg xmlns="http://www.w3.org/2000/svg" width="40" height="40" viewBox="0 0 40 40">
    <g fill="none" fill-rule="nonzero">
        <path fill="#4267B2" d="M37.792 0h-35.6A2.208 2.208 0 0 0 0 2.208v35.6A2.208 2.208 0 0 0 2.208 40h19.16V24.532h-5.2v-6.056h5.2V14.02c0-5.164 3.156-7.98 7.764-7.98 1.555-.007 3.11.074 4.656.24v5.4h-3.176c-2.508 0-2.996 1.2-2.996 2.94v3.856H33.6l-.8 6.056h-5.2V40h10.192c1.22 0 2.208-.989 2.208-2.208v-35.6A2.208 2.208 0 0 0 37.792 0z"/>
        <path fill="#FFF" d="M27.995 40V24.447h5.183l.797-6.089h-5.98v-3.877c0-1.758.486-2.956 2.986-2.956h3.165v-5.43a41.325 41.325 0 0 0-4.64-.241c-4.593 0-7.738 2.815-7.738 8.024v4.48h-5.183v6.09h5.183V40h6.227z"/>
    </g>
</svg>
