<svg xmlns="http://www.w3.org/2000/svg" xmlns:xlink="http://www.w3.org/1999/xlink" width="18" height="18" viewBox="0 0 18 18">
    <defs>
        <path id="a" d="M17.972 6.808a.528.528 0 0 0-.465-.358l-5.301-.36a.843.843 0 0 1-.733-.54L9.496.34a.531.531 0 0 0-.992 0L6.526 5.55a.842.842 0 0 1-.732.54l-5.3.36a.528.528 0 0 0-.313.924l4.137 3.6a.84.84 0 0 1 .265.832l-1.333 5.48a.53.53 0 0 0 .808.563l4.475-2.962a.846.846 0 0 1 .934 0l4.475 2.963a.53.53 0 0 0 .807-.563l-1.332-5.481a.841.841 0 0 1 .265-.833l4.137-3.599a.527.527 0 0 0 .153-.566"/>
    </defs>
    <g fill="none" fill-rule="evenodd">
        <mask id="b" fill="#fff">
            <use xlink:href="#a"/>
        </mask>
        <path fill="#FFD553" fill-rule="nonzero" d="M0 0h9v19.059H0z" mask="url(#b)"/>
        <path fill="#D4D4D4" fill-rule="nonzero" d="M9 0h9v19.059H9z" mask="url(#b)"/>
    </g>
</svg>
