<svg xmlns="http://www.w3.org/2000/svg" width="40" height="40" viewBox="0 0 40 40">
    <g fill="none" fill-rule="nonzero">
        <rect width="40" height="40" fill="#EB1922" rx="2"/>
        <path fill="#FFF" d="M12.667 33.829c.026.184.273.228.384.09.159-.2 2.215-2.64 2.913-5.076.198-.69 1.134-4.262 1.134-4.262.562 1.028 2.2 1.931 3.943 1.931 5.187 0 8.705-4.544 8.705-10.628C29.746 11.284 25.69 7 19.53 7 11.866 7 8 12.283 8 16.688c0 2.667 1.052 5.04 3.303 5.926.371.144.702.005.808-.39.075-.271.25-.957.332-1.245.106-.389.065-.524-.233-.863-.65-.737-1.066-1.691-1.066-3.041 0-3.92 3.052-7.429 7.944-7.429 4.333 0 6.714 2.545 6.714 5.943 0 4.472-2.06 8.246-5.114 8.246-1.69 0-2.953-1.341-2.549-2.986.487-1.965 1.426-4.086 1.426-5.504 0-1.27-.71-2.327-2.176-2.327-1.726 0-3.113 1.715-3.113 4.013 0 1.464.516 2.455.516 2.455l-2.075 8.45c-.617 2.509-.094 5.583-.05 5.893"/>
    </g>
</svg>
