<svg xmlns="http://www.w3.org/2000/svg" width="14" height="15" viewBox="0 0 14 15">
    <path fill="#EB1A22" fill-rule="nonzero" d="M3.6 14.43c.015.1.156.124.22.05.09-.108 1.264-1.42 1.662-2.73.113-.372.647-2.293.647-2.293.32.553 1.256 1.039 2.25 1.039 2.96 0 4.968-2.445 4.968-5.717C13.347 2.304 11.033 0 7.517 0 3.145 0 .938 2.842.938 5.211c0 1.434.6 2.711 1.885 3.187.212.078.4.003.461-.209.043-.146.144-.515.19-.67.06-.209.037-.282-.133-.464-.372-.397-.608-.91-.608-1.636 0-2.109 1.741-3.996 4.533-3.996 2.472 0 3.831 1.37 3.831 3.197 0 2.405-1.175 4.435-2.918 4.435-.964 0-1.685-.721-1.455-1.606.278-1.057.814-2.197.814-2.96 0-.683-.405-1.252-1.242-1.252-.985 0-1.776.922-1.776 2.158 0 .788.294 1.321.294 1.321L3.63 11.261c-.352 1.35-.053 3.003-.028 3.17"/>
</svg>
