<svg xmlns="http://www.w3.org/2000/svg" width="15" height="12" viewBox="0 0 15 12">
    <path fill="#00ABE3" fill-rule="nonzero" d="M14.231.211a6.143 6.143 0 0 1-1.907.705A3.046 3.046 0 0 0 10.133 0C8.475 0 7.13 1.298 7.13 2.899c0 .227.026.447.077.66A8.627 8.627 0 0 1 1.02.53a2.811 2.811 0 0 0-.406 1.457c0 1.005.53 1.892 1.336 2.412a3.079 3.079 0 0 1-1.36-.362v.036c0 1.404 1.035 2.576 2.409 2.842a3.126 3.126 0 0 1-1.357.05c.383 1.151 1.491 1.99 2.805 2.013a6.162 6.162 0 0 1-3.73 1.24c-.242 0-.48-.013-.716-.04a8.728 8.728 0 0 0 4.603 1.302c5.523 0 8.542-4.416 8.542-8.246 0-.126-.001-.251-.007-.376a5.965 5.965 0 0 0 1.497-1.5 6.138 6.138 0 0 1-1.724.456A2.927 2.927 0 0 0 14.23.211"/>
</svg>
