<svg xmlns="http://www.w3.org/2000/svg" width="40" height="40" viewBox="0 0 40 40">
    <g fill="none" fill-rule="nonzero">
        <rect width="40" height="40" fill="#00AAE3" rx="2"/>
        <path fill="#FFF" d="M31.967 10.388a10.705 10.705 0 0 1-3.39 1.293A5.332 5.332 0 0 0 24.68 10c-2.948 0-5.338 2.383-5.338 5.322 0 .417.048.822.138 1.212a15.165 15.165 0 0 1-11.002-5.56 5.32 5.32 0 0 0 1.652 7.105 5.339 5.339 0 0 1-2.418-.665v.066c0 2.578 1.84 4.73 4.283 5.22a5.39 5.39 0 0 1-2.412.091 5.345 5.345 0 0 0 4.986 3.695 10.728 10.728 0 0 1-6.63 2.279c-.431 0-.854-.025-1.273-.075a15.152 15.152 0 0 0 8.183 2.391c9.819 0 15.186-8.109 15.186-15.141 0-.231-.003-.461-.013-.69a10.787 10.787 0 0 0 2.662-2.755c-.957.424-1.985.71-3.066.838a5.34 5.34 0 0 0 2.348-2.945"/>
    </g>
</svg>
